<svg width="26px" height="26px" viewBox="0 0 26 26" version="1.1" xmlns="http://www.w3.org/2000/svg" xmlns:xlink="http://www.w3.org/1999/xlink">
    <!-- Generator: Sketch 51.3 (57544) - http://www.bohemiancoding.com/sketch -->
    <desc>Facebook icon</desc>
    <defs></defs>
    <g id="facebook-icon" stroke="none" stroke-width="1" fill="none" fill-rule="evenodd">
        <g id="Desktop" transform="translate(-462.000000, -1478.000000)" fill="#ff2a1d">
            <g id="Group-2" transform="translate(462.000000, 1478.000000)">
                <path d="M24.9169375,0 L1.083875,0 C0.4850625,0 0,0.4850625 0,1.0830625 L0,24.9169375 C0,25.5149375 0.4850625,26 1.083875,26 L13.8125,26 L13.8125,16.25 L10.5625,16.25 L10.5625,12.1875 L13.8125,12.1875 L13.8125,8.9375 C13.8125,5.5794375 15.9388125,3.9268125 18.9345,3.9268125 C20.369375,3.9268125 21.60275,4.0340625 21.961875,4.0811875 L21.961875,7.5911875 L19.8843125,7.592 C18.25525,7.592 17.875,8.3663125 17.875,9.5021875 L17.875,12.1875 L21.9375,12.1875 L21.125,16.25 L17.875,16.25 L17.94,26 L24.9169375,26 C25.5149375,26 26,25.5149375 26,24.9169375 L26,1.0830625 C26,0.4850625 25.5149375,0 24.9169375,0" id="Fill-3"></path>
            </g>
        </g>
    </g>
</svg>