<svg width="26px" height="26px" viewBox="0 0 26 26" version="1.1" xmlns="http://www.w3.org/2000/svg" xmlns:xlink="http://www.w3.org/1999/xlink">
    <!-- Generator: Sketch 51.3 (57544) - http://www.bohemiancoding.com/sketch -->
    <desc>Linked in icon</desc>
    <defs></defs>
    <g id="linked-in-icon" stroke="none" stroke-width="1" fill="none" fill-rule="evenodd">
        <g id="Desktop" transform="translate(-537.000000, -1478.000000)" fill="#00E9FF">
            <g id="Group-2" transform="translate(462.000000, 1478.000000)">
                <path d="M97.1560625,22.1544375 L93.2999375,22.1544375 L93.2999375,16.1208125 C93.2999375,14.681875 93.2755625,12.831 91.2963125,12.831 C89.29025,12.831 88.9839375,14.399125 88.9839375,16.017625 L88.9839375,22.1544375 L85.131875,22.1544375 L85.131875,9.74675 L88.82875,9.74675 L88.82875,11.44325 L88.8815625,11.44325 C89.395875,10.4674375 90.653625,9.4388125 92.5296875,9.4388125 C96.4345625,9.4388125 97.1560625,12.0079375 97.1560625,15.34975 L97.1560625,22.1544375 Z M80.7841875,8.051875 C79.545125,8.051875 78.5465625,7.0500625 78.5465625,5.8150625 C78.5465625,4.580875 79.545125,3.5790625 80.7841875,3.5790625 C82.0175625,3.5790625 83.019375,4.580875 83.019375,5.8150625 C83.019375,7.0500625 82.0175625,8.051875 80.7841875,8.051875 L80.7841875,8.051875 Z M82.7130625,22.1544375 L78.852875,22.1544375 L78.852875,9.74675 L82.7130625,9.74675 L82.7130625,22.1544375 Z M99.9169375,0 L76.083875,0 C75.4850625,0 75,0.4850625 75,1.0830625 L75,24.916125 C75,25.5149375 75.4850625,26 76.083875,26 L99.9169375,26 C100.514938,26 101,25.5149375 101,24.916125 L101,1.0830625 C101,0.4850625 100.514938,0 99.9169375,0 L99.9169375,0 Z" id="Fill-33"></path>
            </g>
        </g>
    </g>
</svg>