<svg width="29px" height="24px" viewBox="0 0 29 24" version="1.1" xmlns="http://www.w3.org/2000/svg" xmlns:xlink="http://www.w3.org/1999/xlink">
    <!-- Generator: Sketch 51.3 (57544) - http://www.bohemiancoding.com/sketch -->
    <desc>Twitter icon</desc>
    <defs></defs>
    <g id="twitter-icon" stroke="none" stroke-width="1" fill="none" fill-rule="evenodd">
        <g id="Desktop" transform="translate(-499.000000, -1479.000000)" fill="#00E9FF">
            <g id="Group-2" transform="translate(462.000000, 1478.000000)">
                <path d="M66,3.7894375 C64.9333437,4.2625 63.7860313,4.58240625 62.5825313,4.7265 C63.8114062,3.98971875 64.7548125,2.82428125 65.198875,1.435 C64.04975,2.1165 62.7755625,2.6113125 61.4207188,2.87865625 C60.3350313,1.72228125 58.7889688,1 57.0779687,1 C53.7919062,1 51.1284375,3.66346875 51.1284375,6.94953125 C51.1284375,7.41534375 51.181,7.869375 51.2825,8.30528125 C46.3370937,8.05696875 41.9535625,5.68803125 39.019125,2.08840625 C38.5070937,2.96746875 38.2134687,3.98971875 38.2134687,5.0799375 C38.2134687,7.14346875 39.2638125,8.96503125 40.8597187,10.0316875 C39.8845937,10.000875 38.9674687,9.73353125 38.1654375,9.28765625 C38.1645312,9.31303125 38.1645312,9.3375 38.1645312,9.362875 C38.1645312,12.2456562 40.215375,14.6499375 42.93775,15.1964062 C42.4384063,15.3323437 41.9127812,15.4048437 41.3699375,15.4048437 C40.9865937,15.4048437 40.614125,15.3676875 40.2507188,15.2988125 C41.0074375,17.6623125 43.2050937,19.382375 45.80875,19.4304062 C43.7724063,21.0263125 41.2068125,21.9769687 38.4191875,21.9769687 C37.938875,21.9769687 37.4658125,21.948875 37,21.8945 C39.6326563,23.5819375 42.760125,24.5670312 46.1205,24.5670312 C57.064375,24.5670312 63.0483437,15.5009062 63.0483437,7.6391875 C63.0483437,7.38090625 63.0429062,7.1244375 63.031125,6.868875 C64.1938438,6.03059375 65.2025,4.98296875 66,3.7894375" id="Fill-1"></path>
            </g>
        </g>
    </g>
</svg>